<svg width="53" height="32" viewBox="0 0 53 32" fill="none" xmlns="http://www.w3.org/2000/svg"><path fill-rule="evenodd" clip-rule="evenodd" d="M30.5677 12.4342C29.982 12.5898 29.3877 12.7476 28.7001 12.925L28.6588 12.9361C28.3228 13.0263 28.2877 13.0357 27.9751 12.675C27.6001 12.25 27.3251 11.975 26.8001 11.725C25.2251 10.95 23.7001 11.175 22.2751 12.1C20.5751 13.2 19.7001 14.825 19.7251 16.85C19.7501 18.85 21.1251 20.5 23.1001 20.775C24.8001 21 26.2251 20.4 27.3501 19.125C27.517 18.921 27.6701 18.7033 27.8401 18.4617C27.8993 18.3775 27.9605 18.2904 28.0251 18.2H23.2001C22.6751 18.2 22.5501 17.875 22.7251 17.45C23.0501 16.675 23.6501 15.375 24.0001 14.725C24.0751 14.575 24.2501 14.325 24.6251 14.325H32.6704C33.0318 13.1802 33.618 12.0985 34.4001 11.075C36.2251 8.67502 38.4251 7.42502 41.4001 6.90002C43.9501 6.45002 46.3501 6.70002 48.5251 8.17502C50.5 9.52502 51.725 11.35 52.05 13.75C52.475 17.125 51.5 19.875 49.175 22.225C47.525 23.9 45.5 24.95 43.175 25.425C42.7315 25.5072 42.288 25.5461 41.8516 25.5845C41.6238 25.6045 41.398 25.6243 41.175 25.65C38.9 25.6 36.8251 24.95 35.0751 23.45C33.8443 22.3861 32.9964 21.0785 32.5751 19.5563C32.2828 20.1467 31.9332 20.7121 31.5251 21.25C29.7251 23.625 27.3751 25.1 24.4001 25.5C21.9501 25.825 19.6751 25.35 17.6751 23.85C15.8251 22.45 14.7751 20.6 14.5001 18.3C14.1751 15.575 14.9751 13.125 16.6251 10.975C18.4001 8.65001 20.7501 7.17501 23.6251 6.65001C25.9751 6.22501 28.2251 6.50001 30.2501 7.87501C31.5751 8.75001 32.5251 9.95001 33.1501 11.4C33.3001 11.625 33.2001 11.75 32.9001 11.825C32.0239 12.0475 31.3023 12.2392 30.5677 12.4342ZM47.1077 15.2826C47.1126 15.3666 47.1177 15.4551 47.125 15.55C47 17.7 45.925 19.3 43.9501 20.325C42.625 21 41.25 21.075 39.875 20.475C38.0751 19.675 37.125 17.7 37.5751 15.75C38.125 13.4 39.625 11.925 41.9501 11.4C44.3251 10.85 46.6 12.25 47.05 14.725C47.0854 14.902 47.0958 15.079 47.1077 15.2826Z" fill="currentColor"></path><path d="M4.67507 12.275C4.57507 12.275 4.55007 12.225 4.60007 12.15L5.12507 11.475C5.17507 11.4 5.30007 11.35 5.40007 11.35H14.3251C14.4251 11.35 14.4501 11.425 14.4001 11.5L13.9751 12.15C13.9251 12.225 13.8001 12.3 13.7251 12.3L4.67507 12.275Z" fill="currentColor"></path><path d="M0.900049 14.575C0.800049 14.575 0.775049 14.525 0.825049 14.45L1.35005 13.775C1.40005 13.7 1.52505 13.65 1.62505 13.65H13.025C13.125 13.65 13.175 13.725 13.15 13.8L12.95 14.4C12.925 14.5 12.825 14.55 12.725 14.55L0.900049 14.575Z" fill="currentColor"></path><path d="M6.8751 16.7251C6.8251 16.8001 6.8501 16.8751 6.9501 16.8751L12.4001 16.9001C12.4751 16.9001 12.5751 16.8251 12.5751 16.7251L12.6251 16.1251C12.6251 16.0251 12.5751 15.9501 12.4751 15.9501H7.4751C7.3751 15.9501 7.2751 16.0251 7.2251 16.1001L6.8751 16.7251Z" fill="currentColor"></path></svg>